<?xml version="1.0" encoding="utf-8"?>
<!-- Generator: Adobe Illustrator 24.2.3, SVG Export Plug-In . SVG Version: 6.00 Build 0)  -->
<svg version="1.1" id="Layer_1" xmlns="http://www.w3.org/2000/svg" xmlns:xlink="http://www.w3.org/1999/xlink" x="0px" y="0px"
	 viewBox="0 0 566.9 566.9" style="enable-background:new 0 0 566.9 566.9;" xml:space="preserve">
<style type="text/css">
	.st0{fill:#3B3A3A;}
	.st1{fill:#FFFFFF;}
</style>
<g>
	<path class="st0" d="M133.1,302.3c-3.6-8,0.9-9.6,9.5-8.5c-11-15.7-17.1-31.3-16.5-49.3c1.1-36.8,33.1-67.9,71-68.1
		c38.4-0.1,70.8,30.7,71.7,68.4c1,38.3-28.2,70.8-65.4,73c-14.4,0.9-28-1.4-40.7-8.5c-3.7-2-8.1-7.1-8.7,3.1
		c-0.3,5-5.8,1.6-10.2,0.4c3,12.4-3.7,20.1-11.7,27.6c-14.9,13.9-29.1,28.4-43.8,42.4c-10.4,9.9-17.8,10-26.6,1
		c-8.7-8.8-8.4-16.8,1.7-26.8c16-15.9,32.3-31.5,48.3-47.4c5.7-5.6,12.2-8.2,20.1-6.2c0.9,0,1.8,0,2.6,0
		C134,303.1,133.5,302.7,133.1,302.3z M151,247.3c0,25.2,21.6,46.4,46.9,46.1c25-0.3,45.8-21,46-45.8c0.1-25-21.5-46.4-46.8-46.2
		C172.4,201.5,151,222.9,151,247.3z"/>
	<path class="st1" d="M328.6,316.1c-21.8,0-40.2-6.3-50.1-27.7c-1.9-4.1-3.1-8.3-2.6-12.8c0.6-5.3,3.8-8.8,8.7-10.4
		c5.2-1.7,9.6,0.3,12.5,4.7c1.8,2.7,3,5.9,4.5,8.8c7.8,16.4,24.2,22.3,40.9,14.8c7.3-3.3,12.3-8.6,12.7-16.7
		c0.4-8.4-4.9-13.9-12.4-16.4c-12.9-4.3-26.4-7.4-39.2-12.1c-19.8-7.4-28.2-22.7-24.3-41.6c2-9.6,7.4-17.2,15.8-21.6
		c21.8-11.5,43.9-12.2,65.6,0.4c7.3,4.2,12.3,10.6,14.4,18.9c1.9,7.7,0.1,14.3-7.7,17.4c-7.5,3-11.5-2-15-7.8
		c-10.3-17.1-21.5-21.8-37.3-15.7c-6.2,2.4-11.1,6-11.4,13.4c-0.3,7.1,4.2,11.2,9.9,13.2c10.4,3.7,21.2,6.2,31.8,9.6
		c27.8,8.7,39.2,22.6,36.3,43.8c-3.1,22.6-21.5,36.8-48.8,37.7C331.5,316.2,330,316.1,328.6,316.1z"/>
	<path class="st1" d="M511.5,302.5c-0.4,6.9-3.7,11.2-9.5,13c-5.9,1.9-11.4,0.3-14.3-5.3c-3.5-6.9-6.6-14-9-21.3
		c-1.7-5.3-4.5-6.8-9.6-6.7c-13.3,0.2-26.7,0.2-40,0c-5.2-0.1-8,1.5-9.6,6.8c-2,6.7-5.1,13-7.8,19.4c-2.9,7.1-8.5,9.5-15.3,6.9
		c-6.9-2.6-10.7-8.2-7.9-15.8c5.7-15.5,11.6-31,17.6-46.4c7.8-20.3,15.6-40.5,23.5-60.7c3.4-8.8,9-15.6,19.3-15.6
		c9.7,0,15.6,5.9,19,14.4c13.9,34.8,27.7,69.7,41.5,104.5C510.4,298.2,510.9,300.7,511.5,302.5z M429.3,261c11.7,0,22.4,0,33.1,0
		c3.9,0,5.5-1.6,4.1-5.5c-5.7-15.8-11.4-31.5-17.8-49.4C441.8,225.5,435.8,242.7,429.3,261z"/>
	<path class="st0" d="M216.6,277c-16.3,8.7-34.5,4.9-45.4-8.7c-10.7-13.4-10.6-29.6,1.8-44.4c-3.2,15.3-0.9,27.9,8.4,38.7
		C190.7,273.2,202.2,278.5,216.6,277z"/>
</g>
</svg>
