<?xml version="1.0" encoding="utf-8"?>
<!-- Generator: Adobe Illustrator 24.2.3, SVG Export Plug-In . SVG Version: 6.00 Build 0)  -->
<svg version="1.1" id="Layer_1" xmlns="http://www.w3.org/2000/svg" xmlns:xlink="http://www.w3.org/1999/xlink" x="0px" y="0px"
	 viewBox="0 0 566.9 214.1" style="enable-background:new 0 0 566.9 214.1;" xml:space="preserve">
<style type="text/css">
	.st0{fill:#D7AE28;}
	.st1{fill:#FFFFFF;}
</style>
<g>
	<path class="st0" d="M133.1,126c-3.6-8,0.9-9.6,9.5-8.5c-11-15.7-17.1-31.3-16.5-49.3c1.1-36.8,33.1-67.9,71-68.1
		c38.4-0.1,70.8,30.7,71.7,68.4c1,38.3-28.2,70.8-65.4,73c-14.4,0.9-28-1.4-40.7-8.5c-3.7-2-8.1-7.1-8.7,3.1
		c-0.3,5-5.8,1.6-10.2,0.4c3,12.4-3.7,20.1-11.7,27.6c-14.9,13.9-29.1,28.4-43.8,42.4c-10.4,9.9-17.8,10-26.6,1
		c-8.7-8.8-8.4-16.8,1.7-26.8c16-15.9,32.3-31.5,48.3-47.4c5.7-5.6,12.2-8.2,20.1-6.2c0.9,0,1.8,0,2.6,0
		C134,126.8,133.5,126.4,133.1,126z M151,71c0,25.2,21.6,46.4,46.9,46.1c25-0.3,45.8-21,46-45.8c0.1-25-21.5-46.4-46.8-46.2
		C172.4,25.2,151,46.6,151,71z"/>
	<path class="st1" d="M328.6,139.8c-21.8,0-40.2-6.3-50.1-27.7c-1.9-4.1-3.1-8.3-2.6-12.8c0.6-5.3,3.8-8.8,8.7-10.4
		c5.2-1.7,9.6,0.3,12.5,4.7c1.8,2.7,3,5.9,4.5,8.8c7.8,16.4,24.2,22.3,40.9,14.8c7.3-3.3,12.3-8.6,12.7-16.7
		c0.4-8.4-4.9-13.9-12.4-16.4c-12.9-4.3-26.4-7.4-39.2-12.1c-19.8-7.4-28.2-22.7-24.3-41.6c2-9.6,7.4-17.2,15.8-21.6
		C316.9-2.7,339-3.4,360.7,9.2c7.3,4.2,12.3,10.6,14.4,18.9c1.9,7.7,0.1,14.3-7.7,17.4c-7.5,3-11.5-2-15-7.8
		c-10.3-17.1-21.5-21.8-37.3-15.7c-6.2,2.4-11.1,6-11.4,13.4c-0.3,7.1,4.2,11.2,9.9,13.2c10.4,3.7,21.2,6.2,31.8,9.6
		c27.8,8.7,39.2,22.6,36.3,43.8c-3.1,22.6-21.5,36.8-48.8,37.7C331.5,139.9,330,139.8,328.6,139.8z"/>
	<path class="st1" d="M511.5,126.2c-0.4,6.9-3.7,11.2-9.5,13c-5.9,1.9-11.4,0.3-14.3-5.3c-3.5-6.9-6.6-14-9-21.3
		c-1.7-5.3-4.5-6.8-9.6-6.7c-13.3,0.2-26.7,0.2-40,0c-5.2-0.1-8,1.5-9.6,6.8c-2,6.7-5.1,13-7.8,19.4c-2.9,7.1-8.5,9.5-15.3,6.9
		c-6.9-2.6-10.7-8.2-7.9-15.8c5.7-15.5,11.6-31,17.6-46.4c7.8-20.3,15.6-40.5,23.5-60.7c3.4-8.8,9-15.6,19.3-15.6
		c9.7,0,15.6,5.9,19,14.4c13.9,34.8,27.7,69.7,41.5,104.5C510.4,121.9,510.9,124.4,511.5,126.2z M429.3,84.7c11.7,0,22.4,0,33.1,0
		c3.9,0,5.5-1.6,4.1-5.5c-5.7-15.8-11.4-31.5-17.8-49.4C441.8,49.2,435.8,66.4,429.3,84.7z"/>
	<path class="st0" d="M216.6,100.7c-16.3,8.7-34.5,4.9-45.4-8.7c-10.7-13.4-10.6-29.6,1.8-44.4c-3.2,15.3-0.9,27.9,8.4,38.7
		C190.7,96.9,202.2,102.2,216.6,100.7z"/>
</g>
<g>
	<g>
		<path class="st1" d="M192.8,174.4c0,2-0.3,3.8-0.8,5.4s-1.3,3-2.2,4.2s-2.2,2.1-3.7,2.7s-3.2,0.9-5.1,0.9c-2,0-3.7-0.3-5.2-0.9
			s-2.7-1.5-3.7-2.7s-1.7-2.6-2.2-4.2s-0.7-3.4-0.7-5.4c0-2.6,0.4-4.9,1.3-6.9s2.2-3.5,3.9-4.6s4-1.7,6.6-1.7c2.5,0,4.7,0.5,6.4,1.6
			s3.1,2.6,4,4.6S192.8,171.7,192.8,174.4z M172.3,174.4c0,2.2,0.3,4.1,0.9,5.7s1.6,2.8,2.9,3.7s2.9,1.3,4.9,1.3
			c2,0,3.6-0.4,4.9-1.3s2.2-2.1,2.8-3.7s0.9-3.5,0.9-5.7c0-3.3-0.7-5.9-2.1-7.8s-3.6-2.8-6.5-2.8c-2,0-3.6,0.4-4.9,1.3
			s-2.2,2.1-2.9,3.6S172.3,172.2,172.3,174.4z"/>
		<path class="st1" d="M207.1,167.6c2.4,0,4.3,0.8,5.7,2.5s2.1,4.1,2.1,7.5c0,2.2-0.3,4-1,5.5s-1.6,2.6-2.8,3.4s-2.6,1.1-4.2,1.1
			c-1,0-1.9-0.1-2.7-0.4s-1.4-0.6-2-1.1s-1-1-1.4-1.5h-0.2c0,0.5,0.1,1,0.1,1.7s0.1,1.2,0.1,1.7v7.9h-2.9V168h2.4l0.4,2.8h0.1
			c0.4-0.6,0.8-1.1,1.4-1.6s1.2-0.9,2-1.2S206.1,167.6,207.1,167.6z M206.6,170.1c-1.3,0-2.4,0.3-3.2,0.8s-1.4,1.3-1.8,2.3
			s-0.6,2.3-0.6,3.9v0.6c0,1.6,0.2,3,0.5,4.1s0.9,2,1.8,2.6s1.9,0.9,3.3,0.9c1.2,0,2.2-0.3,3-1s1.4-1.5,1.8-2.7s0.6-2.5,0.6-4
			c0-2.3-0.4-4.1-1.3-5.4S208.4,170.1,206.6,170.1z"/>
		<path class="st1" d="M227.5,167.6c1.6,0,3,0.4,4.2,1.1s2.1,1.7,2.7,3s0.9,2.8,0.9,4.6v1.8h-13.3c0,2.3,0.6,4,1.7,5.2
			s2.6,1.8,4.6,1.8c1.2,0,2.3-0.1,3.2-0.3s1.9-0.6,2.9-1v2.6c-1,0.4-1.9,0.8-2.9,0.9s-2.1,0.3-3.4,0.3c-1.9,0-3.5-0.4-4.8-1.1
			s-2.4-1.9-3.2-3.3s-1.1-3.3-1.1-5.4c0-2.1,0.3-3.9,1-5.4s1.7-2.7,3-3.5S225.8,167.6,227.5,167.6z M227.5,170
			c-1.6,0-2.8,0.5-3.7,1.5s-1.5,2.4-1.7,4.3h10.2c0-1.1-0.2-2.2-0.5-3s-0.9-1.6-1.6-2S228.6,170,227.5,170z"/>
		<path class="st1" d="M249.4,167.6c2.3,0,4,0.6,5.2,1.7s1.8,2.9,1.8,5.4v12.6h-2.9v-12.4c0-1.6-0.4-2.8-1.1-3.6s-1.9-1.2-3.4-1.2
			c-2.1,0-3.6,0.6-4.5,1.8s-1.3,3-1.3,5.3v10.1h-2.9V168h2.4l0.4,2.8h0.2c0.4-0.7,0.9-1.3,1.6-1.7s1.3-0.8,2.1-1.1
			S248.6,167.6,249.4,167.6z"/>
		<path class="st1" d="M286.7,180.4c0,1.5-0.4,2.8-1.1,3.9s-1.8,1.9-3.2,2.5s-3,0.8-4.8,0.8c-1,0-1.9,0-2.8-0.1s-1.7-0.2-2.4-0.4
			s-1.4-0.4-1.9-0.7v-2.9c0.9,0.4,2,0.7,3.2,1s2.6,0.5,4,0.5c1.3,0,2.4-0.2,3.3-0.5s1.6-0.8,2-1.5s0.7-1.4,0.7-2.3
			c0-0.9-0.2-1.6-0.6-2.2s-1-1.1-1.9-1.6s-2.1-1-3.7-1.6c-1.1-0.4-2.1-0.8-2.9-1.3s-1.5-1-2.1-1.6s-1-1.3-1.3-2s-0.4-1.7-0.4-2.7
			c0-1.4,0.3-2.5,1-3.5s1.7-1.7,2.9-2.3s2.7-0.8,4.3-0.8c1.4,0,2.6,0.1,3.8,0.4s2.2,0.6,3.2,1l-0.9,2.6c-0.9-0.4-1.9-0.7-2.9-1
			s-2.1-0.4-3.2-0.4s-2,0.2-2.8,0.5s-1.3,0.8-1.7,1.4s-0.6,1.3-0.6,2.1c0,0.9,0.2,1.7,0.6,2.3s1,1.1,1.8,1.6s1.9,0.9,3.3,1.5
			c1.5,0.6,2.8,1.1,3.8,1.7s1.9,1.4,2.4,2.3S286.7,179.1,286.7,180.4z"/>
		<path class="st1" d="M297.7,185.2c0.5,0,1,0,1.5-0.1s0.9-0.2,1.2-0.3v2.3c-0.3,0.2-0.8,0.3-1.4,0.4s-1.2,0.2-1.8,0.2
			c-1,0-1.9-0.2-2.8-0.5s-1.5-1-2-1.8s-0.7-2-0.7-3.6v-11.4H289v-1.4l2.8-1.1l1.2-4.2h1.8v4.5h5.6v2.3h-5.6v11.3
			c0,1.2,0.3,2.1,0.8,2.7S296.8,185.2,297.7,185.2z"/>
		<path class="st1" d="M311.5,167.7c2.3,0,4,0.5,5.1,1.5s1.7,2.7,1.7,4.9v13.1h-2.1l-0.6-2.8h-0.1c-0.5,0.7-1.1,1.3-1.7,1.8
			s-1.3,0.8-2,1.1s-1.7,0.4-2.8,0.4c-1.2,0-2.2-0.2-3.1-0.6s-1.6-1-2.1-1.9s-0.8-1.9-0.8-3.2c0-1.9,0.8-3.4,2.3-4.4s3.8-1.6,7-1.7
			l3.3-0.1v-1.2c0-1.7-0.4-2.8-1.1-3.5s-1.7-1-3-1c-1,0-2,0.1-2.9,0.4s-1.8,0.6-2.6,1l-0.9-2.2c0.9-0.4,1.9-0.8,3-1.1
			S310.3,167.7,311.5,167.7z M315.4,177.8l-2.9,0.1c-2.4,0.1-4.1,0.5-5.1,1.2s-1.5,1.7-1.5,2.9c0,1.1,0.3,1.9,1,2.4s1.6,0.8,2.7,0.8
			c1.7,0,3.1-0.5,4.2-1.4s1.6-2.4,1.6-4.3V177.8z"/>
		<path class="st1" d="M330.5,185.2c0.5,0,1,0,1.5-0.1s0.9-0.2,1.2-0.3v2.3c-0.3,0.2-0.8,0.3-1.4,0.4s-1.2,0.2-1.8,0.2
			c-1,0-1.9-0.2-2.8-0.5s-1.5-1-2-1.8s-0.7-2-0.7-3.6v-11.4h-2.7v-1.4l2.8-1.1l1.2-4.2h1.8v4.5h5.6v2.3h-5.6v11.3
			c0,1.2,0.3,2.1,0.8,2.7S329.6,185.2,330.5,185.2z"/>
		<path class="st1" d="M338.7,160.8c0.5,0,0.9,0.2,1.2,0.5s0.5,0.8,0.5,1.5c0,0.6-0.2,1.1-0.5,1.4s-0.8,0.5-1.2,0.5
			c-0.5,0-0.9-0.2-1.3-0.5s-0.5-0.8-0.5-1.4c0-0.7,0.2-1.1,0.5-1.5S338.1,160.8,338.7,160.8z M340.1,168v19.3h-2.9V168H340.1z"/>
		<path class="st1" d="M354,187.6c-1.7,0-3.3-0.4-4.6-1.1s-2.4-1.8-3.1-3.3s-1.1-3.3-1.1-5.5c0-2.3,0.4-4.2,1.2-5.7s1.9-2.6,3.2-3.3
			s2.9-1.1,4.7-1.1c1,0,1.9,0.1,2.8,0.3s1.6,0.4,2.2,0.7l-0.9,2.4c-0.6-0.2-1.3-0.4-2-0.6s-1.5-0.3-2.2-0.3c-1.3,0-2.4,0.3-3.3,0.9
			s-1.5,1.4-2,2.5s-0.7,2.5-0.7,4.1c0,1.6,0.2,2.9,0.6,4s1.1,1.9,1.9,2.5s1.9,0.9,3.2,0.9c1,0,1.9-0.1,2.8-0.3s1.6-0.5,2.2-0.8v2.6
			c-0.6,0.3-1.4,0.6-2.2,0.8S355.1,187.6,354,187.6z"/>
		<path class="st1" d="M389.4,187.2l-3.2-8.2h-10.3l-3.1,8.2h-3l10.1-25.8h2.7l10,25.8H389.4z M385.3,176.4l-3-8.1
			c-0.1-0.2-0.2-0.6-0.3-1s-0.3-1-0.5-1.5s-0.3-0.9-0.4-1.2c-0.1,0.5-0.2,1-0.4,1.4s-0.3,0.9-0.4,1.3s-0.2,0.7-0.3,1l-3.1,8.1H385.3
			z"/>
		<path class="st1" d="M404.7,167.6c2.3,0,4,0.6,5.2,1.7s1.8,2.9,1.8,5.4v12.6h-2.9v-12.4c0-1.6-0.4-2.8-1.1-3.6s-1.9-1.2-3.4-1.2
			c-2.1,0-3.6,0.6-4.5,1.8s-1.3,3-1.3,5.3v10.1h-2.9V168h2.4l0.4,2.8h0.2c0.4-0.7,0.9-1.3,1.6-1.7s1.3-0.8,2.1-1.1
			S403.9,167.6,404.7,167.6z"/>
		<path class="st1" d="M424.9,167.7c2.3,0,4,0.5,5.1,1.5s1.7,2.7,1.7,4.9v13.1h-2.1l-0.6-2.8h-0.1c-0.5,0.7-1.1,1.3-1.7,1.8
			s-1.3,0.8-2,1.1s-1.7,0.4-2.8,0.4c-1.2,0-2.2-0.2-3.1-0.6s-1.6-1-2.1-1.9s-0.8-1.9-0.8-3.2c0-1.9,0.8-3.4,2.3-4.4s3.8-1.6,7-1.7
			l3.3-0.1v-1.2c0-1.7-0.4-2.8-1.1-3.5s-1.7-1-3-1c-1,0-2,0.1-2.9,0.4s-1.8,0.6-2.6,1l-0.9-2.2c0.9-0.4,1.9-0.8,3-1.1
			S423.6,167.7,424.9,167.7z M428.8,177.8l-2.9,0.1c-2.4,0.1-4.1,0.5-5.1,1.2s-1.5,1.7-1.5,2.9c0,1.1,0.3,1.9,1,2.4s1.6,0.8,2.7,0.8
			c1.7,0,3.1-0.5,4.2-1.4s1.6-2.4,1.6-4.3V177.8z"/>
		<path class="st1" d="M440.6,187.2h-2.9v-27.4h2.9V187.2z"/>
		<path class="st1" d="M443.7,168h3.1l4.3,11.2c0.2,0.7,0.5,1.3,0.7,1.9s0.4,1.2,0.6,1.7s0.3,1.1,0.4,1.6h0.1
			c0.2-0.6,0.4-1.4,0.7-2.3s0.6-1.9,1-2.9l4-11.2h3.1l-8.4,22.1c-0.4,1.2-1,2.2-1.6,3.1s-1.3,1.6-2.2,2s-1.9,0.7-3.1,0.7
			c-0.6,0-1,0-1.5-0.1s-0.8-0.1-1.1-0.2v-2.3c0.3,0.1,0.6,0.1,0.9,0.2s0.8,0.1,1.2,0.1c0.7,0,1.4-0.1,1.9-0.4s1-0.7,1.4-1.2
			s0.7-1.2,1-1.9l1.1-2.7L443.7,168z"/>
		<path class="st1" d="M477.2,187.2h-14v-1.9l10.6-15h-9.9V168H477v2.2L466.5,185h10.7V187.2z"/>
		<path class="st1" d="M489.1,167.6c1.6,0,3,0.4,4.2,1.1s2.1,1.7,2.7,3s0.9,2.8,0.9,4.6v1.8h-13.3c0,2.3,0.6,4,1.7,5.2
			s2.6,1.8,4.6,1.8c1.2,0,2.3-0.1,3.2-0.3s1.9-0.6,2.9-1v2.6c-1,0.4-1.9,0.8-2.9,0.9s-2.1,0.3-3.4,0.3c-1.9,0-3.5-0.4-4.8-1.1
			s-2.4-1.9-3.2-3.3s-1.1-3.3-1.1-5.4c0-2.1,0.3-3.9,1-5.4s1.7-2.7,3-3.5S487.4,167.6,489.1,167.6z M489.1,170
			c-1.6,0-2.8,0.5-3.7,1.5s-1.5,2.4-1.7,4.3h10.2c0-1.1-0.2-2.2-0.5-3s-0.9-1.6-1.6-2S490.2,170,489.1,170z"/>
		<path class="st1" d="M510.7,167.6c0.4,0,0.8,0,1.2,0.1s0.8,0.1,1.1,0.2l-0.4,2.7c-0.3-0.1-0.7-0.1-1.1-0.2s-0.8-0.1-1.1-0.1
			c-0.8,0-1.5,0.2-2.2,0.5s-1.3,0.8-1.8,1.3s-0.9,1.3-1.2,2.1s-0.4,1.7-0.4,2.7v10.3h-2.9V168h2.4l0.3,3.6h0.1
			c0.4-0.7,0.9-1.4,1.4-2s1.2-1.1,2-1.4S509.7,167.6,510.7,167.6z"/>
	</g>
</g>
</svg>
