<?xml version="1.0" encoding="utf-8"?>
<!-- Generator: Adobe Illustrator 24.2.3, SVG Export Plug-In . SVG Version: 6.00 Build 0)  -->
<svg version="1.1" id="Layer_1" xmlns="http://www.w3.org/2000/svg" xmlns:xlink="http://www.w3.org/1999/xlink" x="0px" y="0px"
	 viewBox="0 0 566.9 566.9" style="enable-background:new 0 0 566.9 566.9;" xml:space="preserve">
<style type="text/css">
	.st0{fill:#D7AE28;}
</style>
<g>
	<path class="st0" d="M333.8,319.4c17.3,3.1,31.2,11.5,42.5,24.1c6.9,7.7,11.7,16.8,16.7,25.7c4.9,8.8,9.1,18.1,15.9,25.8
		c5,5.6,10.4,10.4,18.3,11.4c9.8,1.2,20.7-6.8,22.3-16.6c0.2-1.3,0-2-1.4-2.6c-10.2-4.9-14.4-13.4-14.3-24.4c0.1-10.8,0-21.6,0-33.5
		c5,6.6,9.4,12.3,14,18.3c3.1-4.3,6.1-8.3,8.7-12.4c1.8-2.8,2.7-2.4,4.3,0.1c2.3,3.6,5.1,6.8,7.5,10.3c1.2,1.7,1.9,1.7,3.2,0
		c3.6-4.9,7.3-9.7,11-14.6c0.3-0.4,0.5-0.8,1.4-0.6c0,4.8,0.1,9.7,0,14.6c-0.1,7.5,0.4,15-0.3,22.5c-0.8,8.7-5.2,15.1-12.8,19.2
		c-1.9,1-2.6,2.1-2.8,4.2c-1.8,18.2-17.8,32.9-36.1,33.9c-18,1-30.7-7.6-40.6-21.7c-5.3-7.6-9.2-15.9-13.8-23.9
		c-6.3-11.2-12.9-22.1-22.9-30.5c-5.3-4.5-11.4-7.3-17.9-9.4c-1.6-0.5-2.6-0.5-1.9,1.6c2.5,7.7,2.4,15.6,2.7,23.6
		c0.2,6,0.6,12,2.6,17.7c2.9,8.3,8.1,12,16.8,12.1c4.7,0.1,9.5,0.1,14.2,0c1.6,0,2.5,0.2,2.5,2.2c-0.1,18.9-0.1,37.8-0.3,56.7
		c-0.1,5.7-2.2,10.4-8.1,12.4c-1.2,0.4-1.4,1.4-1.8,2.4c-3,6.4-8.1,9.6-15.1,9.6c-10,0.1-20.1,0.1-30.1,0
		c-7.7-0.1-14.2-5.1-16.2-12.2c-2-7.1,1-15.3,7.2-19.4c6.3-4.2,14.3-4,20.2,1.1c2.6,2.3,4.7,1.8,7,0.3c4.1-2.6,5.6-6.6,5.8-11.2
		c0.1-3.9-0.1-7.8,0.1-11.8c0.1-2.7-0.6-3.6-3.4-3.5c-8.5,0.1-17,0.3-25.5-1.5c-20.5-4.2-35.4-15.4-43.2-35.1
		c-0.7-1.9-1.5-2.3-3.5-2c-21.1,3-32.1,17-35.3,36.9c-1.6,9.7-0.6,19.6-0.8,29.3c-0.1,3.2-0.3,6.4-1.3,9.5c-0.8,2.5-2,5-4.4,6
		c-3.5,1.4-5.1,4-6.9,7c-2.3,4-6.3,6.2-10.9,6.4c-11.5,0.5-23.1,0.6-34.6,0c-8.1-0.4-14.5-7.6-14.9-16c-0.4-8.4,5.8-16.5,13.7-18
		c5.5-1.1,10.3,0.1,14.3,4c1.6,1.6,3.1,1.5,5,0.8c4.9-1.9,8-6.4,8-11.8c0.1-11.5-0.3-23,0.7-34.5c1.6-18.9,7-36.3,19.2-51.1
		c0.6-0.8,2.3-1.5,1.3-2.7c-0.9-1.1-1.9-2.7-3.9-2.2c-2.6,0.6-5.2,1.3-7.8,1.4c-14.5,0.5-26.3-4.8-34.4-17.1c-1.5-2.3-3-3-5.5-2.9
		c-3.6,0.2-7.2,0.2-10.7,0c-2.3-0.1-2.9,0.7-2.9,2.9c0.1,10-0.1,20.1,0.1,30.1c0.1,6-1.8,10.4-7.9,12c-2.1,0.6-1.4,2.2-1.4,3.4
		c-0.3,8.9-0.4,17.7-0.6,26.6c-0.1,6.7-3.8,10.8-9.9,10.8c-5.7,0-9.4-4.3-9.4-10.9c0-23.7,0-47.5,0-71.2c0-2.7-0.3-3.8-3.5-3.8
		c-6,0.2-9.9-3.9-9.9-9.6c0-5.6,3.6-9.1,9.7-9.2c2.3,0,3.3-0.6,3.2-3.1c-0.1-6.9-0.1-13.8,0-20.7c0-2.3-0.8-3.2-3-2.8
		c-5.4,0.9-10.1-4.3-10-9.4c0.1-5.8,3.7-9.3,10-9.3c2.2,0,2.9-0.6,2.9-2.9c-0.1-16.1,0-32.3-0.1-48.4c0-5.3-2.2-7.7-7.6-8.3
		c-1.6-0.2-1.8-0.8-1.9-2.1c-0.6-9.4-0.7-9.4,8.8-9.4c9,0,18,0.1,27,0c2.3,0,3.2,0.7,2.9,3c-0.1,1.1-0.1,2.3,0,3.5
		c0.2,3,0.4,5.4-4.1,5.6c-3,0.1-5.1,3-5.4,6.3c-0.1,1.6,0,3.2-0.1,4.8c-0.1,1.4,0.4,2,1.8,2.4c5.9,1.7,8,4.6,8,10.7
		c0,10.6,0.1,21.2,0,31.8c0,2.3,0.6,3,3,3.2c5.1,0.5,7.9-1.2,10.8-5.8c11.9-18.8,29.5-28.1,51.6-28.9c12.9-0.4,25.8-0.4,38.7-0.6
		c3.8-0.1,5.8-1.7,5.7-4.5c-0.1-2.7-2.3-4.5-5.8-4.6c-6.5-0.1-9.7-2-12.9-7.8c-2.3,2.5-3.5,5.7-6,7.9c-3.8,3.3-9,2.9-12-1.3
		c5.2,1.6,8.8-0.5,11.5-4.8c3.1-5,6.5-9.5,13.3-9.8c-1-1.6-2.2-1.6-3.4-1.6c-2.1,0-4.2,0-6.2,0c-6.3,0-8.6,3.2-6.5,9.2
		c0.1,0.4,0.3,0.9,0.4,1.3c-9.1-1.6-14-8.2-13.4-17.7c0.5-8.5,6.9-14.4,16.1-14.8c2.6-0.1,5,0,6.8-2.3c0.4-0.5,1.3-0.9,1.9-0.7
		c4.1,0.8,6.4-2.3,9.4-3.9c8.2-4.4,16.4-4.9,24.5,0.3c1.5,1,3.1,1.3,4.9,1.3c9-0.1,18,0.1,27-0.1c2.7-0.1,3.3,0.8,3.2,3.3
		c-0.2,5.2-0.6,10.4-3,15.1c-0.7,1.4-1.6,3.1-2.9,3.8c-4.5,2.4-3.5,6-2.9,9.9c2.4,16.8,1.7,33.5-3.8,49.8c-1.5,4.5-3.8,8.8-6.1,13.2
		c7.8-0.4,15.7-7.4,17.8-15.5c0.5-2.1,0.8-4.3,0.8-6.5c0-11.9-0.2-23.8,0-35.6c0.1-10.3,1.1-20.4,6.6-29.6
		c10.7-18.1,26.9-27.6,47.7-28c23.6-0.5,47.3-0.1,70.9-0.2c2.8,0,3.5,0.9,3.4,3.5c-0.2,4.6,0.1,9.2-0.1,13.8
		c-0.1,2.6,0.5,3.7,3.4,3.5c3.7-0.3,7.4,0,11.1-0.1c2.2-0.1,3,0.6,3,2.9c-1,26.4-12.4,46.4-35.7,59.4c-2.1,1.2-2.5,2.8-2.9,4.7
		c-3.3,14.8-9.3,28.4-18.9,40.2c-17.7,21.8-40.5,34.3-68.6,36.7C336.3,318.5,335.2,318.3,333.8,319.4z M257.5,212
		c10.3-3.6,9.2-16.9,2.6-21.6c-2.2-1.6-4.3-3.3-6.8-0.3c-0.4,0.5-1.3,1-2.3,0.5c0.1-2.1-0.9-4.3,1.5-6.1c1.3-1,0.6-2.5-0.7-3.5
		c-1.2-0.8-2.6-0.6-2.8,0.7c-0.6,2.8-2.6,2.3-4.5,2.3c-1.8,0-3.7-0.1-5.5,0c-4.9,0.3-8.1,3-9.9,7.4c-1.9,4.7-0.9,9.1,3,12.7
		c1.4-6.7,6-8.5,12.1-7.9c1.3,0.1,2.5,0,3.8,0c9.9,0,13.9,6.6,9.2,15.3c-0.2,0.1-0.6,0.2-0.4,0.6C256.8,212.3,257.3,212.1,257.5,212
		z M222.6,343.5c5.8,4.6,11.7,8.2,18.6,9.5c7.6,1.5,15.4,0.9,23.1,1.2c6.1,0.2,6.1,0.1,6.4,6c0.1,1.5,0.3,3,0.4,4.5
		c1.6,27,18.7,45.8,45.3,50.6c9.4,1.7,18.8,1,28.2,1.2c2.3,0,3.2,0.5,3.1,3c-0.2,5.6-0.1,11.3,0,16.9c0,4-1.3,7.5-3.7,10.5
		c-2.6,3.4-6.1,5.4-10.4,6.4c-3.6,0.9-5.8-1.2-8.3-3c-4.2-3-9.9-2.8-13.9,0.2c-4.4,3.3-6,8.3-4.2,13.8c1.6,5,6.2,8.8,11.2,8.8
		c10.1,0.1,20.3,0.1,30.4,0c3.9-0.1,8.1-1.1,9.3-5.2c1.2-3.8,2.1-6.5,6.7-7.8c3.8-1.1,4.2-6.1,4.2-9.9c0.2-16.3,0-32.5,0.1-48.8
		c0-2.4-0.8-2.9-3-2.9c-4.7,0.1-9.5,0.5-14.2-0.2c-10.2-1.4-14.8-8.8-17.3-17.9c-2.3-8.3-1.8-16.9-2.1-25.4
		c-0.4-9.4-3.1-17.9-8.7-25.4c-4-5.3-8.7-9.9-15.8-10.7c-2.2-0.2-1.7-1.7-1.8-3.1c-0.1-1.7,0.9-1.8,2.2-1.8c7.1,0,14.3,0,21.4,0
		c10.8,0.1,21.3-1.9,31.4-5.9c32.6-12.9,51.9-36.9,59.2-70.9c0.3-1.5,0.7-2.7,2.3-3.5c21.1-10.8,32.6-28.3,35.5-51.7
		c0.2-2.1-0.3-2.6-2.3-2.6c-7.8,0.1-15.7-0.1-23.5,0c-10.9,0.1-21.9-0.5-32.8,0.4c-15.6,1.3-29.7,14.4-31.8,29.9
		c-1.6,11.8-0.3,23.7-0.6,35.6c-0.1,3-0.2,6-0.8,8.9c-3.5,18-20.2,32.8-38.1,33.7c-1.3,0.1-2.9,0.6-2.8-1.7c0-1.7,0.1-2.5,2.3-2.7
		c19.2-1.6,34-17.6,34.3-36.9c0.2-10.7,0-21.4,0.1-32.2c0-1.6,0.1-3.2,0.4-4.8c4.1-21.5,20.7-35.2,42.6-35.2c11.1,0,22.1-0.1,33.2,0
		c2.1,0,2.8-0.6,2.7-2.7c-0.2-3.3-0.2-6.7,0-10c0.2-2.7-0.7-3.4-3.4-3.4c-22.4,0.1-44.7,0.1-67.1,0.1c-1.5,0-3,0-4.5,0.3
		c-26.3,4.1-42.8,22.1-44,48.6c-0.5,12.5-0.2,25.1-0.2,37.7c-0.1,18.9-11.5,30.4-30.4,30.4c-5.2,0-10.4,0-15.6,0
		c-9.6,0.1-16.4,5.7-18.2,15.1c-0.5,2.5-0.6,5-0.7,7.6c-0.2,6.4-4.5,12.2-10.7,13.7c-2.2,0.6-2.7,1.6-3,3.4
		c-0.5,3.8-1.7,7.4-3.4,10.8C236.5,333.8,230.4,339.3,222.6,343.5z M263.9,214.1c1.4,1.1,2.9,1.8,3.8,3.2c2.1,3.1,2.8,6.3,1.2,9.8
		c-1.8,3.8-5.1,5.5-9.2,5.5c-13.9,0.1-27.9-0.1-41.8,0.7c-26.6,1.5-48.4,20.8-53,47.1c-1.3,7.1-1.3,7.2,6.1,7.3
		c2.1,0,2.8,0.5,2.7,2.7c-0.2,5.2,0,10.4-0.1,15.6c0,1.9,0.6,2.6,2.5,2.6c3.5-0.1,6.9-0.1,10.4,0c3.6,0.1,6.4,1.7,8.1,5
		c3.3,6.4-1.1,13.3-8.7,13.9c-2.4,0.2-4.9-0.4-7.4,0.4c7.4,12.1,21.4,17.6,35.5,14.1c13.6-3.4,24.6-15.9,25.3-29
		c0.2-3.1,0.1-5.2,4.4-5.2c4.6,0,8.1-4.1,8.9-8.7c0.3-1.9,0.4-3.9,0.5-5.8c0.9-12.2,8.7-20.5,20.8-22c5.3-0.7,10.6-0.3,15.9-0.3
		c2.4,0,3.7-0.9,4.8-2.9c11.2-20,12.9-41.4,9.5-63.6c-0.3-1.8-1.1-2.6-2.9-2.4c-1.7,0.2-3.8-0.6-4.2,2.2c-0.4,3.3-2.1,6.1-4.6,7.8
		c-3.2,2.2-3.7,4.9-3.4,8.3c0.1,0.7,0,1.4,0,2.1c0,15.2-10.4,27.1-25.5,29.1c-1.3,0.2-3.1,1.3-3.3-1.4c-0.2-2.2,0.1-3.5,2.9-3.7
		c9.9-0.8,18.1-8,20.5-17.7c1.3-5.1,0.6-10.3,0.7-15.5c0-1.5,0.1-2.4,2-3c4-1.3,6.2-4.5,6.2-8.6c0-3,1-3.7,4-3.8
		c9.1-0.2,13.8-3.8,15.3-11c0.3-1.7,0.3-3.4,0.7-5.1c0.4-2.2-0.2-3.1-2.6-3c-7.8,0.1-15.7,0-23.5,0.1c-2.4,0-4.4-0.4-6.4-1.8
		c-6-4-15.6-3.3-21.1,1.2c-0.6,0.5-1.9,0.9-1.3,2.1c0.4,0.9,1.5,0.4,2.2,0.4c6.1,0,12.1,0,18.2,0c-2.5,1.6-5.1,2.6-7.7,3.7
		c-1.8,0.7-4.1,5.2-3.3,6.5C272.5,199,270.7,207.2,263.9,214.1z M204,418c0,7.5,0.1,12.8,0,18.1c-0.1,7.7-4.8,14.4-11.7,16.7
		c-3.2,1-6.2,1.3-9.2-1.5c-4.1-3.8-10-4-14.4-1.2c-4.3,2.8-7,9-5.7,13.4c1.6,5.6,6.3,9.6,12,9.7c10.3,0.1,20.5,0.1,30.8,0
		c6.4-0.1,10-3.4,11-9.6c0.1-0.8-0.2-1.7,1.1-2.1c7-2.3,8.1-4,8.2-11.4c0.1-11.2-0.6-22.3,1.4-33.4c2-11.4,6.5-21.5,15.6-29.2
		c6.3-5.3,13.7-8.4,21.7-9.8c2.3-0.4,3.3-1.2,2.8-3.8c-0.8-4.4-1.4-8.9-1.9-13.3c-0.2-1.9-0.9-2.3-2.6-2.2c-3.3,0.1-6.7-0.2-10,0.1
		c-9.4,0.6-18.3-1-26.4-6.1c-1.8-1.1-2.4,0.1-3.3,1c-6.8,7.4-11.5,16-14.6,25.6C204.6,392.4,203.6,406.2,204,418z M325,323.4
		c2.3,2.9,4.5,5.1,5.9,7.8c0.8,1.5,1.9,2,3.5,2.4c10.5,2.3,19.6,7.3,27.2,14.7c9.2,8.9,15.3,20.1,21.5,31.1
		c5.3,9.6,10.4,19.2,17.6,27.6c10.2,11.9,25,16.3,39.2,11.6C453.9,414,463,402,464,386.2c0.1-1.9,1.2-2.2,2.4-2.7
		c8.5-3.4,12.9-9.8,12.9-18.9c0-6,0-12,0-18c0-0.8,0.6-1.8-0.7-2.4c-2.8,3.8-5.7,7.6-8.7,11.6c-3.4-4.5-6.5-8.6-9.5-12.8
		c-1.3-1.9-2-2.4-3.5,0c-2.6,4.3-5.6,8.4-8.7,12.9c-3-4-5.8-7.8-9-12.2c0,9-0.4,17.1,0.1,25.2c0.4,5.9,4.2,10.2,9.4,13.3
		c1.8,1.1,5.1,0.5,5.4,3.4c0.3,2.3-0.3,4.8-0.7,7.2c-0.2,1.3-0.8,2.7-1.4,3.9c-7.2,14.5-25,19-38.6,9.7c-7.3-5-12-12.2-16.3-19.8
		c-6.7-12.1-13.2-24.2-21.4-35.4C363.4,334.2,346.9,324.3,325,323.4z M145.3,290.2c0,6.7-0.1,13.4,0,20c0,2.1-0.6,2.7-2.7,2.7
		c-6.6-0.1-13.1-0.1-19.7,0c-3.5,0-5.8,2.1-5.7,5.1c0.1,2.8,2.2,4.6,5.7,4.7c6.6,0,13.1,0.1,19.7,0c2.1,0,2.8,0.6,2.8,2.7
		c-0.1,6,0,12,0,18c0,7.5,0.1,15,0,22.5c0,2.8,1.2,2.6,2.9,1.5c2-1.3,2.6-3.3,2.6-5.7c0-11.9,0.1-23.7-0.1-35.6
		c0-2.8,0.9-3.4,3.5-3.4c10,0.1,20,0.1,30.1,0c1.5,0,3,0.2,4.3-0.8c1.8-1.5,2.6-3.2,1.8-5.5c-0.9-2.5-2.8-3.4-5.4-3.4
		c-10.3,0-20.5-0.1-30.8,0.1c-3,0.1-3.6-0.9-3.5-3.7c0.2-11.9,0-23.7,0.1-35.6c0-2.1-0.4-3.9-2.1-5.2c-0.8-0.6-1.7-1-2.6-0.7
		c-1.2,0.4-0.7,1.5-0.7,2.4C145.3,276.8,145.3,283.5,145.3,290.2z M130.6,366.4c0,5.9,0,11.7,0,17.6c0,6.3-0.1,12.7,0,19
		c0.1,3.7,1.7,5.4,4.8,5.4c3.3,0,5.2-1.8,5.4-5.4c0.1-0.9,0-1.8,0-2.8c0-22,0-44,0-66c0-7,0-6.9-7-7c-2.5,0-3.3,0.6-3.3,3.2
		C130.7,342.5,130.6,354.4,130.6,366.4z M130,235.1c0,6.7,0,13.4,0,20.1c0,8,0,7.8,7.8,7.9c2.5,0,3-0.9,3-3.2
		c-0.1-16.1,0.1-32.3-0.1-48.4c-0.1-5.9,2-10,7.8-11.8c1-0.3,1.5-0.7,1.5-1.9c-0.1-1.4-1.1-1.3-1.9-1.3c-8.3,0-16.6,0-24.9,0
		c-0.8,0-1.9-0.4-2.1,1.1c-0.2,1.4,0.6,1.7,1.7,2.1c5.2,1.8,7.2,5.7,7.2,10.9C130,218.7,130,226.9,130,235.1z M130,294.7
		c0,2.1,0,4.1,0,6.2c0,7.7,0,7.6,7.9,7.5c2.2,0,3.1-0.6,3-2.9c-0.1-5.3,0-10.6,0-15.8c0-8.3,0-8.3-8.5-8c-1.8,0.1-2.4,0.5-2.4,2.3
		C130.1,287.6,130,291.2,130,294.7z M155.2,294.7c0,1.1,0,2.3,0,3.4c0,10.8,0,10.8,10.8,10.2c0.1,0,0.2,0,0.3,0
		c1.6,0.1,2.2-0.6,2.2-2.2c-0.1-4,0-8,0-12.1c0-1.5-0.6-1.9-2.1-2c-2.2-0.1-5.2,1.2-6.4-0.7c-1-1.7-0.3-4.5-0.3-6.8
		c0-0.1,0-0.2,0-0.3c0-1.4,0.7-3-1.9-3.1c-2.6-0.1-2.7,1.3-2.7,3.2C155.2,287.9,155.2,291.3,155.2,294.7z M130.1,276.8
		c1.4,0,2.8,0,4.1,0c7.2,0,7.2,0,6.6-7.1c0-0.2,0-0.5,0-0.7c0-1.2-0.7-1.6-1.8-1.6c-5.9,0-11.7-0.1-17.6,0.1
		c-2.8,0.1-4.4,2.2-4.2,4.9c0.2,2.8,1.9,4.3,4.8,4.3C124.8,276.8,127.4,276.8,130.1,276.8z M145.9,221.6c0,12.6,0.2,24.9-0.1,37.2
		c-0.1,3.9,1.4,4.8,4.9,4.6c0-12.2,0-24.2,0-36.3C150.6,224.3,149.4,222.3,145.9,221.6z M158.2,267.4c-2.8-0.7-4.5,0.1-3.1,3.9
		c0.2,0.6,0,1.4,0.1,2c0.3,1.3-0.9,3.3,1.6,3.4c2,0.1,4.2,0.5,4.6-2.6c0.1-1.3,0.6-2.7,1.2-3.9c1.2-2.5,0.1-3-2.2-2.8
		C159.9,267.5,159.3,267.4,158.2,267.4z M265,184.4c-0.8-2.1-2.2-2-3.6-1.3c-1.2,0.6-1.8,1.8-1.4,3.2c0.6,1.8,1.9,2.3,4.4,1.5
		c-2.2-0.3-3.5-0.9-2.9-2.7C262.1,183.3,263.7,184.4,265,184.4z M253.6,207.6c-2.3,0.3-4.1,0.4-5.5,2.5
		C250.3,210.2,251.9,210,253.6,207.6z"/>
	<path class="st0" d="M104.9,174.9c-1.8-2.1-3.7-4.1-5.3-6.3c-9-12.3-6.8-26.3,5.6-37c7-6,15-10.2,23.1-14.3
		c5.6-2.9,11.3-5.7,16.9-8.6c2-1.1,4-2.4,5.8-3.7c5.3-3.7,9.2-8.2,6.9-15.9c5.3,2.3,9.8,4.8,12.8,9.2c2.9,4.2,2.6,9.8-0.5,13.9
		c-0.8,1.1-1.7,1.2-2.9,1.4c-16.1,2.4-31,7.7-43.4,18.6c-5.8,5-9.2,11.3-10.6,18.8c-0.1,0.4,0.2,0.8,0.3,1.2
		c1.2,0.2,1.2-0.6,1.3-1.3c2.1-7.3,6.7-12.8,12.6-17.3c12-9.2,25.6-14.1,40.4-16.5c13.7-2.3,27.7-2.5,41.4-4.8
		c5.1-0.8,10.1-2.2,14.5-5.1c3.2-2.1,5.6-4.8,4.8-9.1c6.7,2.2,8.4,9,6.5,14.2c-2.5,6.7-7.8,10.7-13.5,14.3
		c-10.1,6.5-21.6,9.5-33,12.5c-9,2.4-17.9,5.1-25.7,10.6c-0.9,0.7-1.7,1.5-2.6,2.2c-0.5,0.1-1.4,0.4-1.1,0.9c0.4,0.7,1.4,0.5,2,0
		c9.6-4.2,19.5-7.5,29.9-9.1c8.5-1.2,17.1-2,25.4-4.4c2.7-0.8,5.5-1.7,8.1-2.9c3.8-1.8,7.2-4.1,8.2-8.7c5.8,4.2,7.2,10.2,3.7,16.4
		c-3.1,5.5-8.3,8.5-13.8,11c-11.5,5.1-23.7,6.9-36.2,7.6c-11.9,0.7-23.9,1.6-35.1,6.1c-5.9,2.4-11,5.7-14.1,11.6
		c-0.7,1.4-1.6,2.8-1.2,4.5c0.3,0,0.6,0,0.7-0.1c6.7-10.1,17.1-13,28.2-14.3c5.5-0.6,10.8-1.9,16-5.3c0.2,4.1-1.4,7.2-3.7,9.9
		c-4.4,5.2-10.3,8-16.6,10c-19.9,6.1-39.6,6.3-58.7-3.2c-9.4-4.6-16.2-11.7-18.5-22.3c-1.5-6.9-0.3-13.5,2.6-19.8
		c1.2-2.6,1.9-5.2-0.7-8c3.5-0.1,6.3,0.3,8.4,2.7c1.8,2.1,2.5,4.3,0.7,7.1c-7.5,11.8-2.5,28.5,9.8,33.6c0.4,0.6,0.9,1,1.4,0.3
		C105.9,175.3,105.3,175,104.9,174.9z"/>
</g>
</svg>
